<?xml version="1.0" standalone="no"?><!DOCTYPE svg PUBLIC "-//W3C//DTD SVG 1.1//EN" "http://www.w3.org/Graphics/SVG/1.1/DTD/svg11.dtd"><svg t="1574042790777" class="icon" viewBox="0 0 1024 1024" version="1.1" xmlns="http://www.w3.org/2000/svg" p-id="16677" xmlns:xlink="http://www.w3.org/1999/xlink" width="200" height="200"><defs><style type="text/css"></style></defs><path d="M785.92 749.312h-128a36.608 36.608 0 1 1 0-72.96h128a164.352 164.352 0 0 0 13.312-328.448 36.608 36.608 0 0 1-33.28-32 256 256 0 0 0-507.648 0 36.608 36.608 0 0 1-33.28 32 164.352 164.352 0 0 0 13.312 328.448h128a36.608 36.608 0 1 1 0 72.96h-128A237.568 237.568 0 0 1 190.208 279.04a328.96 328.96 0 0 1 643.584 0 237.568 237.568 0 0 1-47.872 470.272z m0 0" fill="#1296db" p-id="16678"></path><path d="M684.288 848.384L537.6 994.56a37.632 37.632 0 0 1-51.2 0l-146.176-146.176a36.608 36.608 0 1 1 51.2-51.2l84.224 84.224V494.08a36.608 36.608 0 0 1 72.96 0v386.816l84.224-84.224a36.608 36.608 0 1 1 51.2 51.2z m0 0" fill="#1296db" p-id="16679"></path><path d="M785.92 749.312h-128a36.608 36.608 0 1 1 0-72.96h128a164.352 164.352 0 0 0 13.312-328.448 36.608 36.608 0 0 1-33.28-32 256 256 0 0 0-507.648 0 36.608 36.608 0 0 1-33.28 32 164.352 164.352 0 0 0 13.312 328.448h128a36.608 36.608 0 1 1 0 72.96h-128A237.568 237.568 0 0 1 190.208 279.04a328.96 328.96 0 0 1 643.584 0 237.568 237.568 0 0 1-47.872 470.272z m0 0" fill="#1296db" p-id="16680"></path><path d="M684.288 848.384L537.6 994.56a37.632 37.632 0 0 1-51.2 0l-146.176-146.176a36.608 36.608 0 1 1 51.2-51.2l84.224 84.224V494.08a36.608 36.608 0 0 1 72.96 0v386.816l84.224-84.224a36.608 36.608 0 1 1 51.2 51.2z m0 0" fill="#1296db" p-id="16681"></path></svg>