<?xml version="1.0" standalone="no"?><!DOCTYPE svg PUBLIC "-//W3C//DTD SVG 1.1//EN" "http://www.w3.org/Graphics/SVG/1.1/DTD/svg11.dtd"><svg t="1574043141601" class="icon" viewBox="0 0 1024 1024" version="1.1" xmlns="http://www.w3.org/2000/svg" p-id="20562" xmlns:xlink="http://www.w3.org/1999/xlink" width="200" height="200"><defs><style type="text/css"></style></defs><path d="M930.4832 715.2128a42.0608 42.0608 0 0 1-36.4032-63.0784 42.0608 42.0608 0 0 0-15.4112-57.4464l-56.4224-32.5888a42.0608 42.0608 0 0 0-57.4464 15.4112 42.0608 42.0608 0 0 1-72.832 0 42.0608 42.0608 0 0 0-57.4464-15.4112l-56.4224 32.5888a42.0608 42.0608 0 0 0-15.3856 57.4464 42.0608 42.0608 0 0 1-36.4288 63.0784c-23.2192 0-42.0608 18.8416-42.0608 42.0608v65.152c0 23.2192 18.8416 42.0608 42.0608 42.0608a42.0608 42.0608 0 0 1 36.4288 63.0784 42.0608 42.0608 0 0 0 15.3856 57.4464l56.4224 32.5632a42.0608 42.0608 0 0 0 57.4464-15.36 42.0608 42.0608 0 0 1 72.832 0 42.0608 42.0608 0 0 0 57.4464 15.36l56.4224-32.5632a42.0608 42.0608 0 0 0 15.4112-57.4464 42.0608 42.0608 0 0 1 36.4032-63.0784c23.2448 0 42.0608-18.8416 42.0608-42.0608V757.248c0-23.2192-18.816-42.0608-42.0608-42.0608zM773.4272 867.84a90.0864 90.0864 0 1 1-90.112-156.032 90.0864 90.0864 0 0 1 90.112 156.032zM240.9984 206.0288h486.4512v72.064H240.9984V206.0288z m0 187.264h486.4512v72.064H240.9984v-72.064z m0 190.72H511.232v72.064H240.9984v-72.064zM844.544 0.768a72.1408 72.1408 0 0 1 72.064 72.064v392.5248a36.0448 36.0448 0 1 1-72.064 0V72.832H123.904V901.632h315.6224a36.0448 36.0448 0 1 1 0 72.064H123.8784A72.1408 72.1408 0 0 1 51.8144 901.632V72.832A72.1408 72.1408 0 0 1 123.8784 0.768H844.544z" p-id="20563"></path></svg>