<?xml version="1.0" standalone="no"?><!DOCTYPE svg PUBLIC "-//W3C//DTD SVG 1.1//EN" "http://www.w3.org/Graphics/SVG/1.1/DTD/svg11.dtd"><svg t="1574042478119" class="icon" viewBox="0 0 1024 1024" version="1.1" xmlns="http://www.w3.org/2000/svg" p-id="14328" xmlns:xlink="http://www.w3.org/1999/xlink" width="200" height="200"><defs><style type="text/css"></style></defs><path d="M497.152 93.184C395.264 93.184 312.32 176.128 312.32 278.016c0 101.888 82.944 184.832 184.832 184.832 101.888 0 184.832-82.944 184.832-184.832 0-101.888-82.944-184.832-184.832-184.832zM496.64 709.632S230.912 413.696 230.912 266.752C230.912 119.808 349.696 1.024 496.64 1.024s265.728 118.784 265.728 265.728S496.64 709.632 496.64 709.632z m0-354.304c-49.152 0-88.576-39.424-88.576-88.576 0-49.152 39.424-88.576 88.576-88.576 49.152 0 88.576 39.424 88.576 88.576 0 49.152-39.936 88.576-88.576 88.576z m368.128 48.64l92.16-32.768v491.008S768 918.528 665.6 947.2l-357.888-100.352-239.104 81.408V438.784L157.184 414.72c-2.56-14.848-3.584-52.224-3.584-68.096L0 381.952v640.512l51.2-16.896 256.512-83.456 357.888 100.352 358.4-100.352v-640l-154.112 43.008c-1.024 16.896-1.536 52.224-5.12 78.848z" fill="#1296db" p-id="14329"></path></svg>