<?xml version="1.0" standalone="no"?><!DOCTYPE svg PUBLIC "-//W3C//DTD SVG 1.1//EN" "http://www.w3.org/Graphics/SVG/1.1/DTD/svg11.dtd"><svg t="1574045621820" class="icon" viewBox="0 0 1024 1024" version="1.1" xmlns="http://www.w3.org/2000/svg" p-id="2858" xmlns:xlink="http://www.w3.org/1999/xlink" width="200" height="200"><defs><style type="text/css"></style></defs><path d="M951.226045 948.217013c-5.090948 5.091972-11.753695 7.606235-18.35402 7.606235-6.66377 0-13.32447-2.514263-18.35402-7.606235L668.437423 702.576453c-65.936735 56.821123-148.906401 88.061638-236.904595 88.061638-200.509686 0-363.559203-162.733315-363.559203-362.805026 0-200.070688 163.048493-362.867448 363.496781-362.867448 200.384843 0 363.496781 162.795736 363.496781 362.867448 0 88.564082-31.868825 172.037215-89.760326 238.161215l246.019183 245.578138C961.408965 921.692916 961.408965 938.098561 951.226045 948.217013L951.226045 948.217013zM743.801878 427.833065c0-171.910325-140.106991-311.765583-312.332495-311.765583-172.225503 0-312.331471 139.855258-312.331471 311.765583 0 171.911348 140.105968 311.765583 312.331471 311.765583 83.409688 0 161.854295-32.43369 220.812081-91.329055C711.304743 589.373205 743.801878 511.054465 743.801878 427.833065L743.801878 427.833065zM421.664064 228.831732c-105.282858 16.97051-181.716668 106.540502-181.716668 213.018581 0 8.988722 0.754177 18.669198 2.451842 30.486338 1.696642 11.878538-6.600325 22.815635-18.479887 24.449855-1.00591 0.12689-2.073218 0.189312-3.081175 0.189312-10.621918 0-19.923772-7.856945-21.433148-18.668175-1.948375-13.827937-2.828418-25.457812-2.828418-36.519752 0-127.84983 91.7701-235.396241 218.173998-255.761058 11.753695-2.010797 23.004947 6.096858 24.8909 17.913998C441.526437 215.820394 433.481204 226.946802 421.664064 228.831732L421.664064 228.831732z" fill="#1296db" p-id="2859"></path></svg>