<?xml version="1.0" standalone="no"?><!DOCTYPE svg PUBLIC "-//W3C//DTD SVG 1.1//EN" "http://www.w3.org/Graphics/SVG/1.1/DTD/svg11.dtd"><svg t="1574043395810" class="icon" viewBox="0 0 1024 1024" version="1.1" xmlns="http://www.w3.org/2000/svg" p-id="31185" xmlns:xlink="http://www.w3.org/1999/xlink" width="200" height="200"><defs><style type="text/css"></style></defs><path d="M157.184 219.0848c0 9.0112 7.3472 16.2816 16.384 16.2816 9.0368 0 16.3584-7.2704 16.3584-16.2816a16.3328 16.3328 0 0 0-16.384-16.2816 16.3328 16.3328 0 0 0-16.3328 16.2816zM266.3168 219.0848a16.4352 16.4352 0 0 0 32.7168 0 16.4352 16.4352 0 0 0-32.7168 0zM211.84 219.0848a16.4352 16.4352 0 0 0 32.7168 0 16.4352 16.4352 0 0 0-32.7168 0zM348.1088 455.424l49.1008-48.896a16.3072 16.3072 0 0 0-7.3728-27.3408 16.4864 16.4864 0 0 0-15.872 4.224l-60.8512 60.7488a16.2304 16.2304 0 0 0 0 22.9632l60.8512 60.7488a16.384 16.384 0 0 0 23.2448 0 16.2304 16.2304 0 0 0 0-22.9632l-49.1008-49.5104z m234.2912 72.1408c6.3744 6.2976 16.6912 6.2976 23.04 0l61.0304-59.9296a16.2304 16.2304 0 0 0 0-22.9632l-61.0048-60.7488a16.4096 16.4096 0 0 0-23.1424 0.0768 16.256 16.256 0 0 0 0.0768 23.04l49.0752 48.8704-49.0752 48.8448a16.2304 16.2304 0 0 0 0 22.784z m-54.3232-138.9312a16.4352 16.4352 0 0 0-22.4 6.016l-60.3904 105.5488a16.2304 16.2304 0 0 0-0.4608 16.6656 16.384 16.384 0 0 0 28.7744-0.384l61.0304-105.0368a16.2304 16.2304 0 0 0-6.5536-22.784z" p-id="31186"></path><path d="M934.784 614.1952a4.736 4.736 0 0 1-4.4032-3.072 169.6768 169.6768 0 0 0-27.3408-47.104 4.7104 4.7104 0 0 1 0-5.376 37.376 37.376 0 0 0-13.7472-51.1232l-12.2624-7.3216V202.8032a48.9728 48.9728 0 0 0-49.0752-48.8448H151.808a48.9728 48.9728 0 0 0-49.1008 48.8448v412.6976a38.1952 38.1952 0 0 0 38.144 37.9648h223.616l-16.3584 60.2368h-21.76a70.784 70.784 0 0 0-68.864 54.2464H217.2416a16.3328 16.3328 0 0 0-16.3584 16.2816c0 8.9856 7.3216 16.2816 16.3584 16.2816h416.6912c-0.2816 3.8912 0.1024 7.808 1.152 11.5712 2.4576 9.6512 8.7808 17.8944 17.4848 22.784l34.5344 19.8912a37.7856 37.7856 0 0 0 51.3536-13.824 5.0688 5.0688 0 0 1 5.0688-2.304c17.9712 3.072 36.352 3.072 54.3232 0a4.9152 4.9152 0 0 1 5.0688 2.432c6.784 11.5712 19.2768 18.6624 32.7168 18.5856 6.6048 0.0512 13.1072-1.6384 18.816-4.8896l34.5344-19.8656c8.6528-4.9664 14.9504-13.184 17.5104-22.784 2.6112-9.6 1.28-19.8144-3.7632-28.3648a4.864 4.864 0 0 1 0-5.5296 171.1616 171.1616 0 0 0 27.3152-46.8992 4.5824 4.5824 0 0 1 4.4032-3.0976 37.7088 37.7088 0 0 0 37.632-37.4784V651.008a37.5552 37.5552 0 0 0-37.2992-36.8128zM135.4496 202.8032c0-8.9856 7.3216-16.2816 16.3584-16.2816h676.1472c9.0368 0 16.384 7.296 16.384 16.2816v48.8704H135.424V202.8032z m5.376 418.0736a5.376 5.376 0 0 1-5.376-5.376v-331.264h708.864v199.68a37.5296 37.5296 0 0 0-41.3952 16.2816 4.7616 4.7616 0 0 1-4.8896 2.1248 168.7552 168.7552 0 0 0-54.3232 0 4.608 4.608 0 0 1-4.9152-2.1248 37.632 37.632 0 0 0-51.3792-13.6704l-34.5088 19.8656c-8.704 4.864-15.0016 13.0304-17.5104 22.6304a37.632 37.632 0 0 0 3.584 28.4928 4.3776 4.3776 0 0 1 0 5.376 169.6768 169.6768 0 0 0-27.2896 47.0784 4.736 4.736 0 0 1-4.4288 3.072c-8.0128 0.0256-15.8208 2.6112-22.2464 7.3472l-444.16 0.512z m436.3264 92.8256h-196.3008l16.3584-60.2368h171.776v37.2736c0.1024 8.3456 2.9696 16.4352 8.192 22.9632z m-250.624 32.5888H617.728c3.7376 7.5008 8.0128 14.7456 12.7744 21.6576H291.9936a38.144 38.144 0 0 1 34.3552-21.6576h0.1792z m613.1712-55.552c0 2.7136-2.2016 4.8896-4.9152 4.8896a37.7856 37.7856 0 0 0-35.1744 24.1152 137.6256 137.6256 0 0 1-21.9136 37.9392 37.4784 37.4784 0 0 0-3.4304 42.3424c0.512 1.152 0.512 2.4576 0 3.584a4.736 4.736 0 0 1-2.304 3.0976l-34.048 19.2a4.9152 4.9152 0 0 1-6.6816-1.9456 37.8624 37.8624 0 0 0-38.784-18.0736 130.1504 130.1504 0 0 1-43.52 0 37.8624 37.8624 0 0 0-38.7584 18.2528 5.0944 5.0944 0 0 1-6.7072 1.792l-34.5344-19.8656a4.736 4.736 0 0 1-2.304-3.0976 4.224 4.224 0 0 1 0-3.584 37.8112 37.8112 0 0 0-3.4048-42.3424 135.8592 135.8592 0 0 1-22.0928-37.9648 37.2992 37.2992 0 0 0-34.5088-23.4496 4.8896 4.8896 0 0 1-4.9152-4.864V651.008a4.7104 4.7104 0 0 1 4.9152-4.864 37.632 37.632 0 0 0 34.9952-24.1152 133.5808 133.5808 0 0 1 22.0928-37.9648c9.728-12.0832 11.0848-28.8512 3.4304-42.3424a4.5312 4.5312 0 0 1 0-3.7376 4.2496 4.2496 0 0 1 2.304-2.944l34.5088-19.8656a4.608 4.608 0 0 1 2.4576 0c1.664 0.0256 3.2 0.896 4.096 2.304 7.8848 13.44 23.296 20.6848 38.7584 18.2272a130.1504 130.1504 0 0 1 43.52 0 38.1696 38.1696 0 0 0 38.4512-19.2 4.736 4.736 0 0 1 6.528-1.6384l34.5344 19.8656a4.2496 4.2496 0 0 1 2.304 2.9184c0.512 1.2032 0.512 2.56 0 3.7632a37.3248 37.3248 0 0 0 3.4304 42.1632c9.2928 11.4688 16.6912 24.32 21.9136 38.1184 5.2736 14.7456 19.1232 24.704 34.8416 25.088a4.7616 4.7616 0 0 1 4.9152 4.864v39.0912z" p-id="31187"></path><path d="M770.688 596.9408a74.112 74.112 0 0 0-74.2656 73.9328 74.112 74.112 0 0 0 74.2656 73.9584 74.112 74.112 0 0 0 74.2912-73.9584 74.112 74.112 0 0 0-74.2912-73.9328z m0 115.3024a41.472 41.472 0 0 1-41.5488-41.3696 41.472 41.472 0 0 1 41.5488-41.3696 41.472 41.472 0 0 1 41.5744 41.3696 41.472 41.472 0 0 1-41.5744 41.0368v0.3328z" p-id="31188"></path></svg>